Coordinates
version=1
nRows=48
nColumns=11
inDegrees=yes

Units are S.I. units (second, meters, Newtons, ...)
If the header above contains a line with 'inDegrees', this indicates whether rotational values are in degrees (yes) or radians (no).

endheader
time	pelvis_tilt	pelvis_tx	pelvis_ty	hip_flexion_l	hip_flexion_r	knee_angle_l	knee_angle_r	ankle_angle_l	ankle_angle_r	lumbar
      9.64000000	    -19.70358992	      0.25627725	      0.91987010	     46.22105240	     46.22105240	    -38.31100612	    -38.31100612	      8.91161677	      8.91161677	    -17.45813312
      9.65000000	    -18.98194526	      0.25989150	      0.92381788	     44.73515430	     44.73515430	    -37.46668823	    -37.46668823	      8.64395510	      8.64395510	    -17.51494386
      9.66000000	    -18.58994983	      0.26321805	      0.92694368	     43.66357464	     43.66357464	    -36.70119791	    -36.70119791	      8.50546450	      8.50546450	    -17.13792893
      9.67000000	    -18.20386003	      0.26650897	      0.92997195	     42.60682378	     42.60682378	    -35.94396794	    -35.94396794	      8.36798368	      8.36798368	    -16.75673183
      9.68000000	    -17.82585433	      0.26974949	      0.93291973	     41.57072806	     41.57072806	    -35.20214979	    -35.20214979	      8.23676484	      8.23676484	    -16.36701469
      9.69000000	    -17.44897564	      0.27294673	      0.93578111	     40.54530928	     40.54530928	    -34.46901548	    -34.46901548	      8.10411405	      8.10411405	    -15.97857032
      9.70000000	    -17.07402770	      0.27609803	      0.93856257	     39.53238591	     39.53238591	    -33.74696889	    -33.74696889	      7.97200247	      7.97200247	    -15.59159529
      9.71000000	    -16.70143022	      0.27920341	      0.94125952	     38.53182578	     38.53182578	    -33.03536965	    -33.03536965	      7.84116352	      7.84116352	    -15.20494445
      9.72000000	    -16.32871164	      0.28224775	      0.94389019	     37.54478935	     37.54478935	    -32.33787796	    -32.33787796	      7.70930410	      7.70930410	    -14.82202088
      9.73000000	    -15.96611016	      0.28525048	      0.94642861	     36.57361215	     36.57361215	    -31.64239640	    -31.64239640	      7.57860845	      7.57860845	    -14.43523769
      9.74000000	    -15.59603458	      0.28817758	      0.94891933	     35.60752773	     35.60752773	    -30.95739337	    -30.95739337	      7.44167269	      7.44167269	    -14.06470228
      9.75000000	    -15.23679145	      0.29106668	      0.95130842	     34.65635544	     34.65635544	    -30.27229104	    -30.27229104	      7.30310466	      7.30310466	    -13.68559125
      9.76000000	    -14.88365847	      0.29385692	      0.95364838	     33.72138690	     33.72138690	    -29.59005194	    -29.59005194	      7.16059590	      7.16059590	    -13.31446528
      9.77000000	    -14.52776140	      0.29658005	      0.95590787	     32.78988678	     32.78988678	    -28.90746885	    -28.90746885	      7.01052750	      7.01052750	    -12.94962597
      9.78000000	    -14.46602985	      0.29907572	      0.95749862	     32.21978349	     32.21978349	    -28.28904019	    -28.28904019	      6.99858893	      6.99858893	    -12.22284719
      9.79000000	    -13.91423970	      0.30183172	      0.96013916	     31.00124929	     31.00124929	    -27.45256770	    -27.45256770	      6.73728552	      6.73728552	    -12.14393617
      9.80000000	    -13.78789259	      0.30416113	      0.96171056	     30.40608020	     30.40608020	    -26.90823797	    -26.90823797	      6.69389919	      6.69389919	    -11.53074923
      9.81000000	    -13.17153589	      0.30679642	      0.96430520	     29.15663486	     29.15663486	    -26.14556383	    -26.14556383	      6.39391847	      6.39391847	    -11.55094848
      9.82000000	    -12.84863193	      0.30916451	      0.96622632	     28.28652627	     28.28652627	    -25.47068501	    -25.47068501	      6.24353043	      6.24353043	    -11.21281344
      9.83000000	    -12.52788267	      0.31145768	      0.96806937	     27.42496368	     27.42496368	    -24.79856212	    -24.79856212	      6.09745787	      6.09745787	    -10.88812287
      9.84000000	    -12.21409847	      0.31367914	      0.96983994	     26.57929157	     26.57929157	    -24.13590809	    -24.13590809	      5.95485202	      5.95485202	    -10.57007398
      9.85000000	    -11.90476704	      0.31582353	      0.97153404	     25.74634570	     25.74634570	    -23.47690363	    -23.47690363	      5.81715798	      5.81715798	    -10.26095836
      9.86000000	    -11.86695175	      0.31772993	      0.97259673	     25.27129921	     25.27129921	    -22.92145773	    -22.92145773	      5.81718604	      5.81718604	     -9.62816159
      9.87000000	    -11.30990569	      0.31987425	      0.97469107	     24.12892419	     24.12892419	    -22.17210898	    -22.17210898	      5.55176594	      5.55176594	     -9.66120423
      9.88000000	    -11.02783744	      0.32177633	      0.97614317	     23.35155389	     23.35155389	    -21.53363861	    -21.53363861	      5.42596207	      5.42596207	     -9.36672965
      9.89000000	    -10.75369176	      0.32357624	      0.97752467	     22.58945602	     22.58945602	    -20.89648943	    -20.89648943	      5.29800237	      5.29800237	     -9.08625638
      9.90000000	    -10.49571735	      0.32532287	      0.97880760	     21.85722140	     21.85722140	    -20.27429024	    -20.27429024	      5.17993907	      5.17993907	     -8.78993568
      9.91000000	    -10.47717116	      0.32680800	      0.97955382	     21.45124215	     21.45124215	    -19.75847209	    -19.75847209	      5.18746735	      5.18746735	     -8.22421914
      9.92000000	    -10.02199818	      0.32852080	      0.98114500	     20.46226967	     20.46226967	    -19.04968541	    -19.04968541	      4.95839479	      4.95839479	     -8.21240861
      9.93000000	    -10.00117345	      0.32986971	      0.98178227	     20.06658506	     20.06658506	    -18.54408095	    -18.54408095	      4.96171309	      4.96171309	     -7.68347330
      9.94000000	     -9.94345873	      0.33128515	      0.98246153	     19.59155681	     19.59155681	    -17.97978812	    -17.97978812	      4.94234138	      4.94234138	     -7.19487184
      9.95000000	     -9.78929213	      0.33254948	      0.98328825	     19.02950880	     19.02950880	    -17.41821242	    -17.41821242	      4.87145084	      4.87145084	     -6.87275640
      9.96000000	     -9.21602044	      0.33401744	      0.98487913	     17.91988944	     17.91988944	    -16.69575479	    -16.69575479	      4.56099771	      4.56099771	     -7.08565036
      9.97000000	     -9.21591617	      0.33510630	      0.98528493	     17.57150479	     17.57150479	    -16.21385497	    -16.21385497	      4.57213611	      4.57213611	     -6.59874281
      9.98000000	     -8.83443063	      0.33638347	      0.98640995	     16.72600512	     16.72600512	    -15.58127542	    -15.58127542	      4.36979057	      4.36979057	     -6.59626331
      9.99000000	     -8.64279101	      0.33744938	      0.98711869	     16.14893258	     16.14893258	    -15.04482113	    -15.04482113	      4.28120469	      4.28120469	     -6.38573651
     10.00000000	     -8.64426522	      0.33834481	      0.98740404	     15.84847585	     15.84847585	    -14.62240482	    -14.62240482	      4.30168814	      4.30168814	     -5.95131538
     10.01000000	     -8.23939967	      0.33945674	      0.98843300	     15.01221375	     15.01221375	    -14.03633606	    -14.03633606	      4.12203941	      4.12203941	     -6.03339243
     10.02000000	     -8.02554696	      0.34041810	      0.98905907	     14.44864917	     14.44864917	    -13.55911501	    -13.55911501	      4.05506698	      4.05506698	     -5.89418731
     10.03000000	     -8.00863505	      0.34123802	      0.98928488	     14.14993267	     14.14993267	    -13.17148168	    -13.17148168	      4.08053672	      4.08053672	     -5.52629197
     10.04000000	     -7.57232854	      0.34223592	      0.99026278	     13.31880974	     13.31880974	    -12.64481852	    -12.64481852	      3.95169959	      3.95169959	     -5.69462467
     10.05000000	     -7.53117295	      0.34298193	      0.99046517	     13.01602123	     13.01602123	    -12.29113052	    -12.29113052	      3.97906431	      3.97906431	     -5.38935261
     10.06000000	     -7.09377130	      0.34391236	      0.99138874	     12.19793880	     12.19793880	    -11.78768702	    -11.78768702	      3.89558391	      3.89558391	     -5.58272114
     10.07000000	     -7.05016871	      0.34458777	      0.99153420	     11.90759413	     11.90759413	    -11.44901207	    -11.44901207	      3.93205107	      3.93205107	     -5.30651919
     10.08000000	     -6.62805892	      0.34540951	      0.99237265	     11.14236693	     11.14236693	    -11.01195783	    -11.01195783	      3.89294720	      3.89294720	     -5.51140608
     10.09000000	     -6.41092955	      0.34608013	      0.99279307	     10.65699429	     10.65699429	    -10.66327999	    -10.66327999	      3.89680148	      3.89680148	     -5.47627766
     10.10000000	     -6.20423529	      0.34670482	      0.99317203	     10.20217379	     10.20217379	    -10.34757410	    -10.34757410	      3.92638082	      3.92638082	     -5.44520975
     10.11000000	     -6.15940173	      0.34719818	      0.99322725	      9.98054320	      9.98054320	    -10.12610013	    -10.12610013	      3.97957990	      3.97957990	     -5.22106587
